<svg width="100" height="100" viewBox="0 0 100 100" fill="none" xmlns="http://www.w3.org/2000/svg">
<g clip-path="url(#clip0_19_537)">
<path d="M97.8591 17.8771H18.5723C18.4179 17.8771 18.2789 17.9351 18.1328 17.9671L14.9079 7.25906C14.8716 7.14336 14.7942 7.05767 14.7429 6.95064C14.6548 5.84933 13.7572 4.97708 12.6343 4.97708C12.6323 4.97708 12.6279 4.97708 12.6256 4.97708L2.13429 5.02176C0.949284 5.02843 -0.00431984 5.9927 1.47185e-05 7.17537C0.00434928 8.35604 0.962288 9.30964 2.14296 9.30964C2.14496 9.30964 2.14929 9.30964 2.15162 9.30964L11.0381 9.27096L31.552 77.3526C29.514 79.2148 28.2133 81.8675 28.2133 84.844C28.2133 90.465 32.769 95.0226 38.3919 95.0226C44.0128 95.0226 48.5704 90.4646 48.5704 84.844C48.5704 83.3783 48.249 81.9939 47.6919 80.7362H77.3066C76.7494 81.9942 76.428 83.3783 76.428 84.844C76.428 90.465 80.9836 95.0226 86.6066 95.0226C92.2275 95.0226 96.7851 90.4646 96.7851 84.844C96.7851 79.2234 92.2271 74.6655 86.6066 74.6655C84.4723 74.6655 82.4944 75.3277 80.8573 76.4507H44.1392C42.5021 75.3277 40.5262 74.6655 38.3919 74.6655C37.3313 74.6655 36.3283 74.8732 35.366 75.1733L32.3058 65.0204L86.2938 64.9774C87.2387 64.9774 88.0166 64.3539 88.2997 63.503C88.3727 63.368 88.4517 63.2373 88.4948 63.0829L99.9227 20.9409C99.9957 20.6732 100.004 20.4051 99.974 20.146C99.976 20.101 99.9997 20.0647 99.9997 20.0217C100.002 18.837 99.0421 17.8771 97.8591 17.8771ZM86.6089 78.9494C89.8595 78.9494 92.5019 81.5915 92.5019 84.8424C92.5019 88.093 89.8598 90.7354 86.6089 90.7354C83.358 90.7354 80.7159 88.0933 80.7159 84.8424C80.7162 81.5915 83.3583 78.9494 86.6089 78.9494ZM38.3942 78.9494C41.6452 78.9494 44.2872 81.5915 44.2872 84.8424C44.2872 88.093 41.6452 90.7354 38.3942 90.7354C35.1433 90.7354 32.5012 88.0933 32.5012 84.8424C32.5012 81.5915 35.1433 78.9494 38.3942 78.9494ZM84.704 60.6939L31.0185 60.7369L19.3975 22.1649H95.1526L84.704 60.6939Z" fill="white"/>
</g>
<defs>
<clipPath id="clip0_19_537">
<rect width="100" height="100" fill="white"/>
</clipPath>
</defs>
</svg>
