<svg width="100" height="100" viewBox="0 0 100 100" fill="none" xmlns="http://www.w3.org/2000/svg">
<path d="M49.9987 92.2048C49.7299 92.2048 49.4611 92.126 49.2286 91.9681C47.2181 90.6043 0 58.2479 0 30.9768C0 23.9935 2.61944 18.0888 7.57516 13.8997C12.0145 10.1481 18.018 8.08271 24.4815 8.08271C33.5186 8.08271 45.3322 12.5427 50.8387 24.8046C56.1002 12.3307 67.4544 7.79529 76.1459 7.79529C88 7.79529 100 15.7579 100 30.9768C100 58.2487 52.7793 90.6043 50.7686 91.9681C50.5363 92.1253 50.2675 92.2048 49.9987 92.2048ZM24.4815 10.8255C14.0119 10.8255 2.74281 17.1314 2.74281 30.9768C2.74281 54.9888 43.8209 84.8155 49.9985 89.1629C56.1761 84.8141 97.257 54.9798 97.257 30.9768C97.257 21.1325 90.65 10.5383 76.1458 10.5383C67.6139 10.5383 56.2214 15.4185 52.1941 29.1726C52.0248 29.7535 51.4941 30.1538 50.89 30.1587C50.8866 30.1587 50.8825 30.1587 50.8784 30.1587C50.2784 30.1587 49.7477 29.7685 49.5694 29.1953C45.348 15.6365 33.4159 10.8255 24.4815 10.8255Z" fill="white"/>
</svg>
