<svg width="48" height="44" viewBox="0 0 48 44" fill="none" xmlns="http://www.w3.org/2000/svg">
<path d="M35.4802 19.29C35.3202 19.38 35.1602 19.48 34.9902 19.57C34.8702 19.64 34.7402 19.71 34.6102 19.78C31.5279 21.4278 28.3214 22.8321 25.0202 23.98C21.8493 25.1334 18.597 26.0493 15.2902 26.72C15.1002 26.76 14.9202 26.79 14.7402 26.82C13.8897 25.6664 13.2623 24.3641 12.8902 22.98C12.8688 22.9112 12.8521 22.841 12.8402 22.77C12.6285 21.9363 12.5178 21.0801 12.5102 20.22C12.4582 17.652 13.2681 15.1407 14.8107 13.087C16.3532 11.0333 18.5394 9.55562 21.0202 8.89C22.5354 8.48187 24.1189 8.39333 25.6702 8.63C28.6291 9.06523 31.3036 10.6319 33.1302 13C33.2702 13.19 33.4102 13.38 33.5502 13.58C33.9061 14.1029 34.2108 14.6588 34.4602 15.24C34.7287 15.8131 34.9462 16.4088 35.1102 17.02C35.3104 17.7621 35.4343 18.5227 35.4802 19.29Z" fill="#FFD787"/>
<path d="M35.4802 19.29C35.5433 20.2409 35.4794 21.1959 35.2902 22.13C34.9406 24.005 34.129 25.7632 32.929 27.2457C31.729 28.7282 30.1784 29.8882 28.4174 30.6208C26.6564 31.3534 24.7406 31.6355 22.8432 31.4415C20.9457 31.2476 19.1266 30.5837 17.5502 29.51C17.2402 29.3 16.9402 29.08 16.6502 28.84C15.9315 28.2492 15.2899 27.5706 14.7402 26.82C14.9202 26.79 15.1002 26.76 15.2902 26.72C18.597 26.0492 21.8494 25.1334 25.0202 23.98C28.3215 22.8321 31.5279 21.4278 34.6102 19.78C34.7402 19.71 34.8702 19.64 34.9902 19.57C35.1602 19.48 35.3202 19.38 35.4802 19.29Z" fill="#FFD787"/>
<path d="M23.5633 28.647C23.5285 28.647 23.4938 28.6434 23.4597 28.6363C21.5106 28.2267 19.605 27.6322 17.7688 26.8608C17.6465 26.8093 17.5498 26.7113 17.4998 26.5884C17.4498 26.4655 17.4506 26.3278 17.5022 26.2056C17.5537 26.0833 17.6517 25.9865 17.7746 25.9365C17.8975 25.8865 18.0352 25.8874 18.1575 25.9389C19.9347 26.6859 21.7792 27.2614 23.6658 27.6577C23.7867 27.6832 23.8939 27.7525 23.9667 27.8524C24.0396 27.9523 24.0728 28.0756 24.06 28.1985C24.0473 28.3214 23.9895 28.4353 23.8977 28.5181C23.806 28.6009 23.6869 28.6469 23.5633 28.647Z" fill="#FFA866"/>
<path d="M26.7091 29.1421C26.6921 29.1421 26.675 29.1411 26.6574 29.1397C26.4113 29.1143 26.1623 29.085 25.9123 29.0518C25.6696 29.021 25.4264 28.9868 25.1843 28.9498C25.0536 28.9295 24.9364 28.8583 24.8581 28.7517C24.7799 28.6451 24.7471 28.5119 24.7668 28.3812C24.7866 28.2505 24.8574 28.133 24.9636 28.0543C25.0698 27.9756 25.2029 27.9423 25.3337 27.9615C25.569 27.9966 25.8047 28.0295 26.0407 28.0601C26.2834 28.0919 26.5226 28.1202 26.7599 28.1446C26.8874 28.1577 27.005 28.2193 27.0885 28.3166C27.1719 28.4139 27.2148 28.5395 27.2083 28.6675C27.2017 28.7955 27.1463 28.9161 27.0534 29.0044C26.9606 29.0928 26.8373 29.142 26.7091 29.1421Z" fill="#FFA866"/>
<path d="M34.1409 16.2612C34.044 16.2612 33.9491 16.2329 33.868 16.1797C31.9701 14.9648 29.9277 13.9921 27.7884 13.2842C27.7262 13.2632 27.6687 13.2302 27.6193 13.187C27.5699 13.1439 27.5294 13.0914 27.5003 13.0326C27.4711 12.9738 27.4538 12.9098 27.4494 12.8443C27.445 12.7788 27.4535 12.7131 27.4744 12.6509C27.4954 12.5887 27.5284 12.5312 27.5716 12.4818C27.6148 12.4323 27.6673 12.3919 27.7261 12.3627C27.7849 12.3336 27.8488 12.3163 27.9143 12.3119C27.9798 12.3074 28.0455 12.316 28.1077 12.3369C30.3274 13.0716 32.4462 14.0814 34.4148 15.3428C34.505 15.4017 34.5737 15.4882 34.6107 15.5894C34.6477 15.6905 34.6511 15.8009 34.6203 15.9041C34.5895 16.0074 34.5262 16.0979 34.4398 16.1622C34.3535 16.2266 34.2486 16.2613 34.1409 16.2612Z" fill="#FFA866"/>
<path d="M33.9053 25.2603C33.8887 25.2603 33.8716 25.2593 33.854 25.2578C31.6119 25.0083 29.3855 24.634 27.1851 24.1367L26.7315 24.0366C26.6674 24.0222 26.6068 23.9953 26.5531 23.9575C26.4995 23.9196 26.4538 23.8716 26.4187 23.8161C26.3836 23.7606 26.3598 23.6987 26.3486 23.634C26.3374 23.5693 26.3391 23.503 26.3535 23.439C26.368 23.3749 26.3949 23.3143 26.4327 23.2607C26.4705 23.207 26.5186 23.1613 26.5741 23.1262C26.6296 23.0911 26.6914 23.0673 26.7561 23.0561C26.8208 23.045 26.8871 23.0466 26.9512 23.061L27.3984 23.1597C29.562 23.6489 31.7511 24.0172 33.9556 24.2627C34.0831 24.2757 34.2008 24.3371 34.2843 24.4344C34.3679 24.5317 34.4108 24.6573 34.4044 24.7853C34.3979 24.9134 34.3425 25.0341 34.2496 25.1224C34.1568 25.2108 34.0335 25.2602 33.9053 25.2603Z" fill="#FFA866"/>
<path d="M20.0543 16.711C20.0196 16.711 19.9849 16.7074 19.9508 16.7002C18.0001 16.2771 16.0287 15.9557 14.0446 15.7373C13.9792 15.7307 13.9158 15.7112 13.858 15.68C13.8002 15.6488 13.7491 15.6066 13.7076 15.5557C13.6661 15.5048 13.6351 15.4462 13.6162 15.3833C13.5974 15.3203 13.5911 15.2543 13.5978 15.189C13.6045 15.1236 13.6239 15.0603 13.6551 15.0024C13.6863 14.9446 13.7285 14.8935 13.7794 14.852C13.8304 14.8105 13.8889 14.7795 13.9519 14.7606C14.0148 14.7418 14.0808 14.7355 14.1461 14.7422C16.1653 14.9644 18.1716 15.2914 20.1569 15.7217C20.2778 15.7472 20.385 15.8165 20.4578 15.9164C20.5306 16.0163 20.5639 16.1396 20.5511 16.2625C20.5384 16.3854 20.4806 16.4993 20.3888 16.5821C20.2971 16.6649 20.1779 16.7108 20.0543 16.711Z" fill="#FFA866"/>
<path d="M22.6082 25.6943C22.5645 25.6944 22.521 25.6886 22.4788 25.6772C21.7464 25.4819 21.0262 25.2709 20.3182 25.0444C20.2557 25.0244 20.1977 24.9923 20.1476 24.9499C20.0975 24.9075 20.0563 24.8556 20.0262 24.7972C19.9961 24.7389 19.9779 24.6752 19.9724 24.6098C19.967 24.5444 19.9745 24.4785 19.9945 24.416C20.0145 24.3535 20.0466 24.2955 20.089 24.2454C20.1314 24.1953 20.1833 24.154 20.2416 24.124C20.3 24.0939 20.3637 24.0756 20.4291 24.0702C20.4945 24.0648 20.5604 24.0723 20.6229 24.0923C21.3138 24.313 22.0184 24.5193 22.7367 24.7114C22.8538 24.7427 22.9556 24.8155 23.023 24.9163C23.0905 25.0171 23.119 25.1389 23.1033 25.2592C23.0876 25.3794 23.0287 25.4898 22.9377 25.5699C22.8466 25.6499 22.7295 25.6942 22.6082 25.6943Z" fill="#FFA866"/>
<path d="M26.6487 15.6601C26.6005 15.66 26.5525 15.6531 26.5061 15.6396C25.0476 15.206 23.5608 14.8423 22.0862 14.5596C22.0215 14.5474 21.9599 14.5225 21.9048 14.4865C21.8498 14.4504 21.8024 14.4038 21.7654 14.3494C21.7283 14.295 21.7024 14.2338 21.6891 14.1693C21.6757 14.1049 21.6753 14.0384 21.6877 13.9738C21.7001 13.9092 21.7251 13.8476 21.7613 13.7927C21.7976 13.7377 21.8443 13.6905 21.8988 13.6536C21.9534 13.6168 22.0146 13.591 22.0791 13.5779C22.1436 13.5648 22.2101 13.5645 22.2747 13.5771C23.7815 13.8667 25.301 14.2378 26.7913 14.6806C26.9065 14.7149 27.0055 14.7894 27.0703 14.8907C27.135 14.992 27.1611 15.1131 27.1438 15.2321C27.1265 15.351 27.0669 15.4597 26.976 15.5383C26.8851 15.6169 26.7689 15.6602 26.6487 15.6601Z" fill="#FFA866"/>
<path d="M20.0228 14.209C19.9992 14.2091 19.9758 14.2074 19.9525 14.2041C19.4149 14.1285 18.8909 14.0656 18.3807 14.0157C18.2501 14.001 18.1306 13.9355 18.0479 13.8334C17.9652 13.7313 17.9261 13.6007 17.9389 13.47C17.9517 13.3392 18.0155 13.2188 18.1165 13.1347C18.2174 13.0506 18.3474 13.0096 18.4783 13.0206C19.0018 13.0718 19.5397 13.1363 20.0921 13.2139C20.2174 13.2316 20.3313 13.2961 20.4109 13.3944C20.4906 13.4927 20.5299 13.6176 20.5211 13.7438C20.5124 13.87 20.456 13.9882 20.3636 14.0745C20.2711 14.1609 20.1493 14.2089 20.0228 14.209Z" fill="#FFA866"/>
<path opacity="0.66" d="M26.9798 31.11C25.3855 31.5382 23.7175 31.6169 22.0899 31.3408C20.4623 31.0646 18.9137 30.4401 17.5498 29.51C18.9006 29.6323 20.2623 29.5104 21.5698 29.15C23.0512 28.7535 24.4399 28.0691 25.6568 27.1359C26.8736 26.2026 27.8947 25.0388 28.6618 23.7109C29.4288 22.383 29.9267 20.917 30.1271 19.3966C30.3276 17.8763 30.2265 16.3313 29.8298 14.85C29.1711 12.3728 27.7077 10.1848 25.6698 8.63C28.288 9.01242 30.6941 10.2863 32.4822 12.2368C34.2702 14.1872 35.3307 16.6947 35.4846 19.3362C35.6385 21.9777 34.8765 24.5915 33.3271 26.7364C31.7777 28.8813 29.5359 30.4261 26.9798 31.11Z" fill="#686886"/>
<path d="M44.3801 16.33C43.5705 17.1089 42.6938 17.815 41.7601 18.44C41.6301 18.53 41.5001 18.62 41.3701 18.7C39.4223 19.9778 37.3911 21.1237 35.2901 22.13C35.1101 22.22 34.9301 22.31 34.7401 22.4C31.8144 23.7838 28.8206 25.0187 25.7701 26.1C22.8001 27.15 19.9301 28.02 17.2601 28.69C17.0501 28.74 16.8501 28.79 16.6501 28.84C8.80014 30.75 2.93014 30.89 2.21014 28.87C1.52014 26.94 5.75014 23.55 12.5101 20.22C12.5177 21.0802 12.6285 21.9363 12.8401 22.77C10.1301 24.31 8.59014 25.68 8.87014 26.5C9.17014 27.35 11.4201 27.42 14.7401 26.82C14.9201 26.79 15.1001 26.76 15.2901 26.72C18.5969 26.0493 21.8493 25.1334 25.0201 23.98C28.3214 22.8321 31.5278 21.4278 34.6101 19.78C34.7401 19.71 34.8701 19.64 34.9901 19.57C35.1601 19.48 35.3201 19.38 35.4802 19.29C36.1175 18.9264 36.735 18.5291 37.3302 18.1C37.8525 17.7426 38.3265 17.3191 38.7401 16.84C39.1002 16.41 39.2401 16.04 39.1301 15.74C38.9301 15.19 37.9301 14.97 36.3601 15.05C36.0801 15.06 35.7801 15.08 35.4601 15.11C35.1501 15.14 34.8101 15.19 34.4601 15.24C34.1098 14.4419 33.6632 13.6896 33.1301 13C33.7001 12.88 34.2401 12.77 34.7801 12.66C35.8901 12.45 36.9501 12.2801 37.9301 12.16C38.8854 12.0338 39.8468 11.9604 40.8101 11.94C43.5901 11.84 45.4101 12.31 45.7901 13.38C46.0701 14.16 45.5401 15.17 44.3801 16.33Z" fill="#FF8163"/>
<path d="M44.3798 16.33C43.5701 17.1089 42.6934 17.815 41.7598 18.44C41.6298 18.53 41.4998 18.62 41.3698 18.7L34.6098 19.78C34.7398 19.71 34.8698 19.64 34.9898 19.57C35.1598 19.48 35.3198 19.38 35.4799 19.29C36.1171 18.9264 36.7347 18.5291 37.3299 18.1C37.8522 17.7426 38.3261 17.3191 38.7398 16.84C39.0999 16.41 39.2398 16.04 39.1298 15.74C38.9298 15.19 37.9298 14.97 36.3598 15.05C36.0798 15.06 35.7798 15.08 35.4598 15.11C35.1498 15.14 34.8098 15.19 34.4598 15.24C34.2104 14.6588 33.9057 14.1029 33.5498 13.58L34.7798 12.66C35.8898 12.45 36.9498 12.2801 37.9298 12.16C38.885 12.0338 39.8465 11.9604 40.8098 11.94C43.5898 11.84 45.4098 12.31 45.7898 13.38C46.0698 14.16 45.5398 15.17 44.3798 16.33Z" fill="#666666"/>
</svg>
