<svg width="100" height="100" viewBox="0 0 100 100" fill="none" xmlns="http://www.w3.org/2000/svg">
<path d="M50 62.5C56.9036 62.5 62.5 56.9036 62.5 50C62.5 43.0964 56.9036 37.5 50 37.5C43.0964 37.5 37.5 43.0964 37.5 50C37.5 56.9036 43.0964 62.5 50 62.5Z" stroke="white" stroke-width="2" stroke-miterlimit="10" stroke-linecap="round" stroke-linejoin="round"/>
<path d="M86.7438 32.3938L83.6188 26.9812C81.8938 23.9906 78.0719 22.9687 75.0813 24.6937L73.4375 25.6438C67.1875 29.25 59.375 24.7406 59.375 17.525V15.625C59.375 12.1719 56.5782 9.375 53.125 9.375H46.875C43.4219 9.375 40.625 12.1719 40.625 15.625V17.525C40.625 24.7406 32.8125 29.2531 26.5625 25.6438L24.9188 24.6937C21.9282 22.9687 18.1063 23.9906 16.3813 26.9812L13.2563 32.3938C11.5313 35.3844 12.5532 39.2062 15.5438 40.9312L17.1875 41.8813C23.4375 45.4906 23.4375 54.5094 17.1875 58.1187L15.5438 59.0688C12.5532 60.7938 11.5313 64.6156 13.2563 67.6063L16.3813 73.0187C18.1063 76.0094 21.9282 77.0312 24.9188 75.3062L26.5625 74.3563C32.8125 70.7469 40.625 75.2594 40.625 82.475V84.375C40.625 87.8281 43.4219 90.625 46.875 90.625H53.125C56.5782 90.625 59.375 87.8281 59.375 84.375V82.475C59.375 75.2594 67.1875 70.7469 73.4375 74.3563L75.0813 75.3062C78.0719 77.0312 81.8938 76.0094 83.6188 73.0187L86.7438 67.6063C88.4688 64.6156 87.4469 60.7938 84.4563 59.0688L82.8125 58.1187C76.5625 54.5094 76.5625 45.4906 82.8125 41.8813L84.4563 40.9312C87.4469 39.2062 88.4719 35.3844 86.7438 32.3938Z" stroke="white" stroke-width="2" stroke-miterlimit="10" stroke-linecap="round" stroke-linejoin="round"/>
</svg>
