<svg width="100" height="100" viewBox="0 0 100 100" fill="none" xmlns="http://www.w3.org/2000/svg">
<g clip-path="url(#clip0_19_534)">
<path d="M99.6798 38.2184C98.9112 35.8573 96.8256 34.0989 94.3654 33.7373L67.7861 29.8768L55.9006 5.79562C54.8034 3.56473 52.4885 2.12256 50.002 2.12256C47.513 2.12256 45.1945 3.56407 44.0953 5.79431L32.2127 29.8768L5.6279 33.738C3.17167 34.0983 1.08685 35.8566 0.316096 38.2197C-0.450412 40.5842 0.204494 43.2318 1.98359 44.964L21.2153 63.7141L16.6798 90.1826C16.2548 92.6318 17.2811 95.1596 19.2937 96.6211C20.4233 97.4426 21.7622 97.8773 23.1666 97.8773C24.2308 97.8773 25.2901 97.6162 26.2288 97.1232L50.0022 84.6249L73.7743 97.1232C74.7123 97.6163 75.7703 97.8773 76.8338 97.8773C78.2369 97.8773 79.5749 97.4428 80.7045 96.6211C82.7171 95.1575 83.7441 92.6303 83.3219 90.1852L78.7816 63.714L98.0167 44.9645C99.7997 43.2271 100.453 40.578 99.6798 38.2184ZM96.0927 42.9914L76.339 62.2465C76.0146 62.5633 75.8658 63.0192 75.9429 63.4663L80.6065 90.6532C80.8518 92.0733 80.2547 93.5419 79.0844 94.3939C78.4287 94.8706 77.6506 95.1233 76.8336 95.1233C76.2151 95.1233 75.6007 94.9717 75.0566 94.6852L50.6436 81.8494C50.4424 81.744 50.2226 81.6917 50.0022 81.6917C49.7818 81.6917 49.5614 81.744 49.361 81.8494L24.947 94.6852C23.6824 95.3491 22.0666 95.2328 20.913 94.3933C19.7435 93.5441 19.1469 92.0761 19.3943 90.6512L24.0532 63.4666C24.1297 63.0202 23.9816 62.5636 23.6571 62.2475L3.90599 42.9914C2.87134 41.9838 2.49062 40.4444 2.93556 39.0725C3.38393 37.6984 4.59831 36.6749 6.0261 36.4648L33.326 32.4996C33.7743 32.4342 34.1629 32.1523 34.3632 31.7453L46.5661 7.01262C47.2053 5.71556 48.5538 4.87748 50.0022 4.87748C51.4467 4.87748 52.7911 5.7149 53.4295 7.01328L65.6365 31.7453C65.8376 32.1523 66.2247 32.434 66.6739 32.4996L93.9674 36.4641C95.3994 36.6749 96.6135 37.6976 97.0613 39.0738C97.5095 40.4439 97.1301 41.9818 96.0927 42.9914Z" fill="white"/>
</g>
<defs>
<clipPath id="clip0_19_534">
<rect width="100" height="100" fill="white"/>
</clipPath>
</defs>
</svg>
