<svg width="100" height="100" viewBox="0 0 100 100" fill="none" xmlns="http://www.w3.org/2000/svg">
<path d="M49.9984 8.81836C59.3379 8.81836 67.8018 13.0916 73.9314 20.0008L73.9348 20.0045L73.9383 20.0082V20.0118C80.0646 26.9247 83.8541 36.4698 83.8541 46.9988C83.8541 57.5351 80.0617 67.0802 73.9383 73.9894L73.9317 73.9966C67.8054 80.9023 59.3445 85.1792 49.9987 85.1792C40.656 85.1792 32.1921 80.9023 26.0658 73.9966L26.0592 73.9894C19.936 67.0802 16.1436 57.5386 16.1436 46.9988C16.1436 36.4551 19.936 26.91 26.0592 20.0008C32.1854 13.0953 40.6493 8.81836 49.9984 8.81836ZM71.7277 22.486C66.1741 16.2192 58.4886 12.3425 49.9984 12.3425C41.5119 12.3425 33.8293 16.2229 28.2691 22.4933C22.7124 28.7636 19.2714 37.4277 19.2714 46.9986C19.2714 56.5695 22.7124 65.2371 28.2691 71.5074C33.8293 77.7741 41.515 81.6543 50.0017 81.6543C58.4886 81.6543 66.1741 77.7738 71.7341 71.5074C77.291 65.2371 80.7316 56.5693 80.7316 46.9986C80.7316 37.424 77.2942 28.7564 71.7372 22.4933L71.7277 22.486Z" fill="white"/>
<path d="M81.3407 36.4181C82.2033 36.4181 82.9032 37.2073 82.9032 38.1803C82.9032 39.1533 82.2035 39.9426 81.3407 39.9426H54.0384C49.1652 39.9426 44.7379 37.6959 41.5281 34.0761C38.3184 30.4563 36.3262 25.4634 36.3262 19.9714V13.2273C36.3262 12.2545 37.026 11.465 37.8888 11.465C38.7516 11.465 39.4514 12.2543 39.4514 13.2273V19.9714C39.4514 24.4906 41.0954 28.6059 43.7354 31.5833C46.3788 34.5644 50.0247 36.4146 54.032 36.4146H81.3409L81.3407 36.4181Z" fill="white"/>
<path d="M18.6627 39.9424C17.8001 39.9424 17.1001 39.1531 17.1001 38.1802C17.1001 37.2072 17.8032 36.4179 18.6627 36.4179C21.7163 36.4179 24.3595 36.2821 26.6839 35.4488C28.9333 34.6448 30.9873 33.1506 32.9893 30.4155C33.5363 29.6703 34.5226 29.5638 35.1866 30.1843C35.8507 30.8047 35.9419 31.9134 35.395 32.6623C32.9634 35.981 30.4306 37.8129 27.6279 38.8115C24.8966 39.7847 21.9864 39.9424 18.6627 39.9424Z" fill="white"/>
<path d="M58.8238 70.5491C59.6149 70.1747 60.5294 70.5932 60.8616 71.4853C61.1938 72.3774 60.8227 73.4088 60.0315 73.7834C58.4691 74.525 56.8251 75.1053 55.126 75.4908C53.4527 75.8724 51.7372 76.0746 50.0021 76.0746C48.2702 76.0746 46.5515 75.8724 44.8783 75.4908C43.179 75.1018 41.5318 74.5253 39.9693 73.7834C39.1783 73.4092 38.8072 72.3774 39.1392 71.4853C39.4712 70.5932 40.386 70.1747 41.177 70.5491C42.5475 71.2026 43.9961 71.7092 45.487 72.0505C46.9226 72.377 48.433 72.5499 50.0021 72.5499C51.5679 72.5499 53.0816 72.377 54.5173 72.0505C56.0048 71.7092 57.4535 71.2026 58.8238 70.5491Z" fill="white"/>
<path d="M85.7514 64.3229C86.0834 63.4275 87.0011 63.0053 87.7958 63.3796C88.5901 63.7539 88.9644 64.7891 88.6324 65.6853C88.3912 66.3314 88.1048 67.0327 87.7925 67.7702V67.7741V67.778C87.5123 68.4314 87.1998 69.1179 86.8614 69.8231C86.5519 70.4653 86.2169 71.1261 85.8557 71.7941C85.4976 72.455 85.1329 73.1047 84.7618 73.7178L84.7653 73.7215C84.3844 74.3532 83.9969 74.9735 83.6031 75.5682L83.5283 75.671C83.1245 76.2732 82.7307 76.8419 82.3498 77.3636C81.9233 77.9474 81.4807 78.5238 81.0281 79.0855C80.5463 79.6804 80.0841 80.231 79.6479 80.7192L79.547 80.822C79.1339 81.2845 78.6745 81.7766 78.1896 82.2721L78.193 82.2758C77.7307 82.7494 77.2196 83.2453 76.666 83.7592V83.7629C76.1321 84.2584 75.5983 84.7322 75.0774 85.1726C74.5468 85.6166 73.9966 86.0609 73.4332 86.4869C72.8928 86.8979 72.3167 87.3127 71.7176 87.7242C71.1482 88.117 70.5622 88.4952 69.9728 88.8549L69.8945 88.8989C69.2987 89.2625 68.7162 89.6001 68.1626 89.9011L68.091 89.9449C67.466 90.2827 66.867 90.591 66.3135 90.8517L66.1932 90.903L65.3926 91.2739L65.3501 91.2925V91.2962L64.4288 91.6926L64.3929 91.7074L63.462 92.0781L63.4294 92.0895V92.0932L62.4856 92.4384L62.3652 92.4787L61.4897 92.7688L61.4537 92.7799V92.7837L60.4934 93.0775C59.66 93.327 58.804 92.7692 58.5825 91.8295C58.3613 90.8895 58.8561 89.9243 59.6893 89.6746L60.6496 89.3808V89.3847L61.4831 89.1055L61.5222 89.091L62.4662 88.7458V88.7497L63.3286 88.4045H63.332L64.2533 88.0081L65.012 87.6593L65.1097 87.6079C65.7055 87.3252 66.2459 87.0499 66.7472 86.7783L66.8157 86.7377C67.3822 86.4292 67.9193 86.1248 68.4137 85.8237L68.5017 85.7649C69.0424 85.4345 69.5793 85.0855 70.1001 84.7298C70.6176 84.3736 71.1547 83.9883 71.6952 83.5735C72.1998 83.1879 72.7108 82.7803 73.2155 82.3548C73.7267 81.9253 74.2213 81.4883 74.6805 81.059H74.6839H74.6873C75.1265 80.6513 75.6022 80.1851 76.0934 79.6785L76.0968 79.6824L76.1003 79.6785C76.4975 79.2711 76.9207 78.8196 77.3536 78.3311L77.435 78.2319C77.9036 77.7034 78.3369 77.1968 78.7177 76.7231C79.1375 76.2017 79.5476 75.666 79.945 75.1261C80.339 74.5902 80.7068 74.0652 81.0387 73.5658L81.1004 73.4667C81.4748 72.9015 81.8362 72.3286 82.1781 71.7595L82.1815 71.7634V71.7595C82.5395 71.1647 82.8783 70.5702 83.1907 69.9864C83.5002 69.4099 83.8157 68.793 84.1216 68.1508C84.4048 67.5633 84.6912 66.9283 84.9811 66.2566V66.2604C85.2337 65.6667 85.4909 65.0278 85.7514 64.3229Z" fill="white"/>
<path d="M10.0882 38.1143C8.35959 38.474 6.81329 39.4249 5.62192 40.7685C4.08216 42.5049 3.1251 44.9133 3.1251 47.5676C3.1251 50.2218 4.08216 52.6301 5.62192 54.3668C6.81329 55.7104 8.35959 56.6611 10.0882 57.0208V38.1143ZM3.41155 38.2796C5.50476 35.919 8.3988 34.4468 11.5955 34.4285H11.654C12.5166 34.4285 13.2166 35.2178 13.2166 36.1908V58.908V58.9559C13.2166 59.9287 12.5167 60.7182 11.654 60.7182C8.43443 60.7182 5.52093 59.246 3.41482 56.8671C1.30543 54.4879 0 51.2022 0 47.5711C0 43.9405 1.30543 40.6511 3.41155 38.2796Z" fill="white"/>
<path d="M88.3458 34.4284H88.4011C91.5912 34.4431 94.4853 35.9152 96.5817 38.2758L96.5879 38.2832C98.6944 40.6585 99.9998 43.9479 99.9998 47.5712C99.9998 51.202 98.6944 54.4877 96.5879 56.8631C94.4818 59.2383 91.5652 60.7138 88.3458 60.7138C87.4832 60.7138 86.7832 59.9245 86.7832 58.9517V58.9038V36.1907C86.7834 35.2177 87.4863 34.4284 88.3458 34.4284ZM94.3844 40.7685L94.3779 40.7612C93.1864 39.4213 91.6401 38.4741 89.9116 38.1144V57.0284C91.6401 56.6685 93.1864 55.718 94.3779 54.374C95.9177 52.6376 96.8747 50.2296 96.8747 47.5751C96.8747 44.9207 95.9242 42.5087 94.3844 40.7685Z" fill="white"/>
<path d="M14.242 30.2432C13.9099 31.1353 12.9952 31.5537 12.2042 31.1793C11.4131 30.8048 11.042 29.7769 11.3741 28.8848C12.9561 24.6667 15.0721 20.7496 17.6275 17.2472C20.1927 13.734 23.2039 10.6355 26.5602 8.08027C30.0206 5.44434 33.7903 3.4252 37.739 2.06319C41.694 0.701183 45.8218 0 49.9984 0C50.8611 0 51.561 0.789268 51.561 1.76226C51.561 2.73526 50.8611 3.52452 49.9984 3.52452C46.0986 3.52452 42.2769 4.16692 38.6406 5.41891C35.0077 6.67072 31.5246 8.54318 28.3017 10.9954C25.1766 13.3742 22.3901 16.2378 20.0268 19.4759C17.6601 22.7209 15.7036 26.348 14.242 30.2432Z" fill="white"/>
<path d="M49.9985 87.3743C51.5382 87.3743 52.9381 88.083 53.9504 89.2209L53.9569 89.2283C54.9692 90.3697 55.5944 91.9486 55.5944 93.6853C55.5944 95.4291 54.9661 97.0076 53.9569 98.1496C52.9446 99.291 51.5415 100 49.9952 100C48.4587 100 47.059 99.291 46.0433 98.1496L46.0367 98.1423C45.0243 96.9968 44.396 95.4217 44.396 93.6853C44.396 91.9414 45.0243 90.359 46.0367 89.2174C47.0525 88.0791 48.4522 87.3743 49.9985 87.3743ZM51.7564 91.7135L51.7498 91.7063C51.3039 91.2108 50.6851 90.8984 50.0017 90.8984C49.3182 90.8984 48.6996 91.2143 48.2536 91.7135C47.8044 92.2164 47.5278 92.9176 47.5278 93.6888C47.5278 94.4633 47.8012 95.1606 48.244 95.66L48.2505 95.6674C48.6899 96.1666 49.3117 96.4753 49.9986 96.4753C50.6823 96.4753 51.3008 96.1592 51.7467 95.6565C52.1927 95.1536 52.4695 94.4561 52.4695 93.6853C52.4726 92.9141 52.199 92.2166 51.7564 91.7135Z" fill="white"/>
<path d="M88.6258 28.8848C88.9578 29.7769 88.5867 30.8085 87.7957 31.1829C87.0046 31.5574 86.0899 31.1389 85.7579 30.2468C84.2962 26.3517 82.3398 22.7245 79.9698 19.4829C77.6063 16.2449 74.8197 13.3814 71.6946 11.0023C68.472 8.54995 64.9889 6.67768 61.3559 5.42569C57.7197 4.17388 53.8978 3.53148 49.9982 3.53148C49.1356 3.53148 48.4355 2.74221 48.4355 1.76922C48.4355 0.796226 49.1354 0.00695801 49.9982 0.00695801C54.1781 0.00695801 58.3025 0.70814 62.2608 2.07015C66.2097 3.43215 69.9791 5.4513 73.4395 8.08723C76.7956 10.6424 79.807 13.7409 82.3721 17.2542C84.9278 20.7496 87.0437 24.6666 88.6258 28.8848Z" fill="white"/>
</svg>
