<svg width="100" height="100" viewBox="0 0 100 100" fill="none" xmlns="http://www.w3.org/2000/svg">
<g clip-path="url(#clip0_19_541)">
<path d="M50 90.625C41.9652 90.625 34.1107 88.2424 27.43 83.7785C20.7492 79.3145 15.5422 72.9698 12.4674 65.5465C9.3926 58.1233 8.58809 49.955 10.1556 42.0745C11.7231 34.194 15.5923 26.9553 21.2738 21.2738C26.9553 15.5923 34.194 11.7231 42.0745 10.1556C49.955 8.58809 58.1233 9.3926 65.5465 12.4674C72.9698 15.5422 79.3145 20.7492 83.7785 27.43C88.2424 34.1107 90.625 41.9652 90.625 50C90.625 60.7744 86.3449 71.1076 78.7262 78.7262C71.1076 86.3449 60.7744 90.625 50 90.625ZM50 15.625C43.2013 15.625 36.5552 17.6411 30.9023 21.4182C25.2494 25.1954 20.8434 30.5641 18.2417 36.8453C15.6399 43.1265 14.9592 50.0382 16.2855 56.7062C17.6119 63.3743 20.8858 69.4994 25.6932 74.3068C30.5007 79.1142 36.6257 82.3881 43.2938 83.7145C49.9619 85.0409 56.8736 84.3601 63.1548 81.7584C69.436 79.1566 74.8046 74.7507 78.5818 69.0977C82.359 63.4448 84.375 56.7988 84.375 50C84.375 40.8832 80.7534 32.1398 74.3068 25.6932C67.8603 19.2467 59.1168 15.625 50 15.625Z" fill="white"/>
<path d="M67.1876 70.3125C66.7763 70.3149 66.3686 70.2361 65.9878 70.0805C65.6071 69.925 65.2608 69.6959 64.9688 69.4062L47.7813 52.2187C47.4917 51.9267 47.2625 51.5805 47.107 51.1997C46.9515 50.819 46.8727 50.4113 46.8751 50V25C46.8751 24.1712 47.2043 23.3763 47.7903 22.7903C48.3764 22.2042 49.1713 21.875 50.0001 21.875C50.8289 21.875 51.6237 22.2042 52.2098 22.7903C52.7958 23.3763 53.1251 24.1712 53.1251 25V48.7188L69.4063 64.9688C69.6992 65.2593 69.9317 65.6049 70.0903 65.9857C70.249 66.3665 70.3307 66.775 70.3307 67.1875C70.3307 67.6 70.249 68.0085 70.0903 68.3893C69.9317 68.7701 69.6992 69.1157 69.4063 69.4062C69.1143 69.6959 68.768 69.925 68.3873 70.0805C68.0065 70.2361 67.5988 70.3149 67.1876 70.3125Z" fill="white"/>
</g>
<defs>
<clipPath id="clip0_19_541">
<rect width="100" height="100" fill="white"/>
</clipPath>
</defs>
</svg>
